<svg xmlns="http://www.w3.org/2000/svg" xmlns:svg="http://www.w3.org/2000/svg" xmlns:xlink="http://www.w3.org/1999/xlink" id="svg2" width="723.271" height="366.779" version="1.1"><metadata id="metadata7"/><g id="layer1" transform="translate(72.895212,-687.28296)"><g id="text3787" transform="matrix(1.96,0,0,1.96,-277.19065,-835.84556)" style="font-size:40px;font-style:normal;font-weight:400;line-height:125%;letter-spacing:0;word-spacing:0;fill:#000;fill-opacity:1;stroke:none;font-family:Sans"><path id="path4242" d="m 147.93948,945.49237 c -11.39066,-5.10939 -19.99222,-13.19532 -25.80469,-24.25781 -5.81252,-11.10936 -8.71876,-24.98435 -8.71875,-41.625 -10e-6,-16.68744 2.90623,-30.56243 8.71875,-41.625 5.81247,-11.10928 14.41403,-19.21865 25.80469,-24.32813 l 0,6.89063 c -7.21879,4.96885 -12.39848,11.97665 -15.53907,21.02344 -3.14065,9.00007 -4.71096,21.67974 -4.71093,38.03906 -3e-5,16.31253 1.57028,28.9922 4.71093,38.03906 3.14059,9 8.32028,15.98437 15.53907,20.95313 l 0,6.89062" style="fill:#ccc"/><path id="path4244" d="m 205.94729,878.133 -25.66406,37.47656 13.57031,0 0,7.45312 -34.73438,0 0,-7.45312 12.09375,0 30.23438,-44.08594 -30.65625,-45.91406 -11.25,0 0,-7.52344 41.625,0 0,7.52344 -12.375,0 22.5,33.82031 23.13281,-33.82031 -13.5,0 0,-7.52344 34.38281,0 0,7.52344 -11.8125,0 -27.77343,40.42969 33.11718,49.57031 11.25,0 0,7.45312 -41.625,0 0,-7.45312 12.51563,0 -25.03125,-37.47656" style="fill:#e6e6e6"/><path id="path4246" d="m 271.12698,945.49237 0,-6.89062 c 7.21873,-4.96876 12.39841,-11.95313 15.53906,-20.95313 3.18747,-9.04686 4.78122,-21.72653 4.78125,-38.03906 -3e-5,-16.35932 -1.59378,-29.03899 -4.78125,-38.03906 -3.14065,-9.04679 -8.32033,-16.05459 -15.53906,-21.02344 l 0,-6.89063 c 11.43747,5.10948 20.06247,13.21885 25.875,24.32813 5.81245,11.06257 8.7187,24.93756 8.71875,41.625 -5e-5,16.64065 -2.9063,30.51564 -8.71875,41.625 -5.81253,11.06249 -14.43753,19.14842 -25.875,24.25781" style="fill:#ccc"/><path id="path4252" d="m 410.17498,936.77362 4.92188,-12.44531 -27.91407,-68.48438 -8.50781,0 0,-7.52343 34.38281,0 0,7.52343 -11.95312,0 21.02344,51.39844 21.02343,-51.39844 -11.17968,0 0,-7.52343 28.05468,0 0,7.52343 -8.36718,0 -34.24219,84.09375 c -2.34379,5.81248 -4.94535,9.77341 -7.80469,11.88282 -2.8594,2.15621 -6.89065,3.23434 -12.09375,3.23437 -2.20314,-3e-5 -4.47658,-0.18753 -6.82031,-0.5625 -2.29689,-0.37503 -4.6172,-0.91409 -6.96094,-1.61719 l 0,-14.27343 6.60938,0 c 0.28123,3.18748 1.07811,5.46091 2.39062,6.82031 1.35936,1.40622 3.4453,2.10935 6.25781,2.10937 2.57811,-2e-5 4.6406,-0.72658 6.1875,-2.17968 1.59372,-1.40628 3.25779,-4.26565 4.99219,-8.57813" style="fill:#e6e6e6"/><path id="path4248" d="m 408.93948,945.49237 c -11.39066,-5.10939 -19.99222,-13.19532 -25.80469,-24.25781 -5.81252,-11.10936 -8.71876,-24.98435 -8.71875,-41.625 -1e-5,-16.68744 2.90623,-30.56243 8.71875,-41.625 5.81247,-11.10928 14.41403,-19.21865 25.80469,-24.32813 l 0,6.89063 c -7.21879,4.96885 -12.39848,11.97665 -15.53907,21.02344 -3.14065,9.00007 -4.71096,21.67974 -4.71093,38.03906 -3e-5,16.31253 1.57028,28.9922 4.71093,38.03906 3.14059,9 8.32028,15.98437 15.53907,20.95313 l 0,6.89062" style="fill:#ccc"/><path id="path4250" d="m 429.47073,945.49237 0,-6.89062 c 7.21873,-4.96876 12.39841,-11.95313 15.53906,-20.95313 3.18747,-9.04686 4.78122,-21.72653 4.78125,-38.03906 -3e-5,-16.35932 -1.59378,-29.03899 -4.78125,-38.03906 -3.14065,-9.04679 -8.32033,-16.05459 -15.53906,-21.02344 l 0,-6.89063 c 11.43747,5.10948 20.06247,13.21885 25.875,24.32813 5.81245,11.06257 8.7187,24.93756 8.71875,41.625 -5e-5,16.64065 -2.9063,30.51564 -8.71875,41.625 -5.81253,11.06249 -14.43753,19.14842 -25.875,24.25781" style="fill:#ccc"/></g><rect id="rect3817" width="11.55" height="11.55" x="24.859" y="782.284" style="fill:#000;fill-opacity:1"/><use id="use3893" width="744.094" height="1052.362" x="0" y="0" transform="translate(41.299999,31.185)" xlink:href="#rect3817"/><use id="use3895" width="744.094" height="1052.362" x="0" y="0" transform="translate(82.599997,31.185)" xlink:href="#rect3817"/><use id="use3897" width="744.094" height="1052.362" x="0" y="0" transform="translate(165.2,31.185)" xlink:href="#rect3817"/><use id="use3899" width="744.094" height="1052.362" x="0" y="0" transform="translate(165.2,93.555)" xlink:href="#rect3817"/><use id="use3901" width="744.094" height="1052.362" x="0" y="0" transform="translate(206.5,155.925)" xlink:href="#rect3817"/><use id="use3903" width="744.094" height="1052.362" x="0" y="0" transform="translate(41.299999,0)" xlink:href="#rect3817"/><use id="use3905" width="744.094" height="1052.362" x="0" y="0" transform="translate(123.9,31.185)" xlink:href="#rect3817"/><use id="use3907" width="744.094" height="1052.362" x="0" y="0" transform="translate(206.5,31.185)" xlink:href="#rect3817"/><use id="use3909" width="744.094" height="1052.362" x="0" y="0" transform="translate(206.5,93.554999)" xlink:href="#rect3817"/><use id="use3911" width="744.094" height="1052.362" x="0" y="0" transform="translate(0,124.74)" xlink:href="#rect3817"/><use id="use3913" width="744.094" height="1052.362" x="0" y="0" transform="translate(0,187.11)" xlink:href="#rect3817"/><use id="use3915" width="744.094" height="1052.362" x="0" y="0" transform="translate(82.599997,0)" xlink:href="#rect3817"/><use id="use3917" width="744.094" height="1052.362" x="0" y="0" transform="translate(0,62.369999)" xlink:href="#rect3817"/><use id="use3919" width="744.094" height="1052.362" x="0" y="0" transform="translate(41.299999,62.369999)" xlink:href="#rect3817"/><use id="use3921" width="744.094" height="1052.362" x="0" y="0" transform="translate(41.299999,124.74)" xlink:href="#rect3817"/><use id="use3923" width="744.094" height="1052.362" x="0" y="0" transform="translate(82.599997,124.74)" xlink:href="#rect3817"/><use id="use3925" width="744.094" height="1052.362" x="0" y="0" transform="translate(41.299999,187.11)" xlink:href="#rect3817"/><use id="use3927" width="744.094" height="1052.362" x="0" y="0" transform="translate(123.9,0)" xlink:href="#rect3817"/><use id="use3929" width="744.094" height="1052.362" x="0" y="0" transform="translate(82.599997,62.369999)" xlink:href="#rect3817"/><use id="use3931" width="744.094" height="1052.362" x="0" y="0" transform="translate(123.9,62.369999)" xlink:href="#rect3817"/><use id="use3933" width="744.094" height="1052.362" x="0" y="0" transform="translate(123.9,124.74)" xlink:href="#rect3817"/><use id="use3935" width="744.094" height="1052.362" x="0" y="0" transform="translate(165.2,124.74)" xlink:href="#rect3817"/><use id="use3937" width="744.094" height="1052.362" x="0" y="0" transform="translate(82.599997,187.11)" xlink:href="#rect3817"/><use id="use3939" width="744.094" height="1052.362" x="0" y="0" transform="translate(165.2,0)" xlink:href="#rect3817"/><use id="use3941" width="744.094" height="1052.362" x="0" y="0" transform="translate(165.2,62.369999)" xlink:href="#rect3817"/><use id="use3943" width="744.094" height="1052.362" x="0" y="0" transform="translate(206.5,62.369999)" xlink:href="#rect3817"/><use id="use3945" width="744.094" height="1052.362" x="0" y="0" transform="translate(206.5,124.74)" xlink:href="#rect3817"/><use id="use3947" width="744.094" height="1052.362" x="0" y="0" transform="translate(0,155.925)" xlink:href="#rect3817"/><use id="use3949" width="744.094" height="1052.362" x="0" y="0" transform="translate(123.9,187.11)" xlink:href="#rect3817"/><use id="use3951" width="744.094" height="1052.362" x="0" y="0" transform="translate(206.5,0)" xlink:href="#rect3817"/><use id="use3953" width="744.094" height="1052.362" x="0" y="0" transform="translate(0,93.554999)" xlink:href="#rect3817"/><use id="use3955" width="744.094" height="1052.362" x="0" y="0" transform="translate(41.299999,93.555)" xlink:href="#rect3817"/><use id="use3957" width="744.094" height="1052.362" x="0" y="0" transform="translate(41.299999,155.925)" xlink:href="#rect3817"/><use id="use3959" width="744.094" height="1052.362" x="0" y="0" transform="translate(82.599997,155.925)" xlink:href="#rect3817"/><use id="use3961" width="744.094" height="1052.362" x="0" y="0" transform="translate(165.2,187.11)" xlink:href="#rect3817"/><use id="use3963" width="744.094" height="1052.362" x="0" y="0" transform="translate(0,31.185)" xlink:href="#rect3817"/><use id="use3965" width="744.094" height="1052.362" x="0" y="0" transform="translate(82.599997,93.554999)" xlink:href="#rect3817"/><use id="use3967" width="744.094" height="1052.362" x="0" y="0" transform="translate(123.9,93.555)" xlink:href="#rect3817"/><use id="use3969" width="744.094" height="1052.362" x="0" y="0" transform="translate(123.9,155.925)" xlink:href="#rect3817"/><use id="use3971" width="744.094" height="1052.362" x="0" y="0" transform="translate(165.2,155.925)" xlink:href="#rect3817"/><use id="use3973" width="744.094" height="1052.362" x="0" y="0" transform="translate(206.5,187.11)" xlink:href="#rect3817"/><use id="use4047" width="744.094" height="1052.362" x="0" y="0" transform="translate(520.1,155.925)" xlink:href="#rect3817"/><use id="use4049" width="744.094" height="1052.362" x="0" y="0" transform="translate(520.1,31.185)" xlink:href="#rect3817"/><use id="use4051" width="744.094" height="1052.362" x="0" y="0" transform="translate(520.1,93.554999)" xlink:href="#rect3817"/><use id="use4053" width="744.094" height="1052.362" x="0" y="0" transform="translate(520.1,62.369999)" xlink:href="#rect3817"/><use id="use4055" width="744.094" height="1052.362" x="0" y="0" transform="translate(520.1,124.74)" xlink:href="#rect3817"/><use id="use4057" width="744.094" height="1052.362" x="0" y="0" transform="translate(520.1,0)" xlink:href="#rect3817"/><use id="use4059" width="744.094" height="1052.362" x="0" y="0" transform="translate(520.1,187.11)" xlink:href="#rect3817"/><g id="g4218" transform="matrix(1.96,0,0,1.96,-277.19065,-835.84556)"><rect style="fill:#ccc;fill-opacity:1" id="rect4214" width="24.464" height="11.071" x="323.214" y="878.969" ry="0"/><path style="fill:#ccc;fill-opacity:1" id="path4216" d="m 357.69985,895.31569 0,-12.95351 0,-12.95351 11.21806,6.47676 11.21807,6.47675 -11.21807,6.47676 z" transform="translate(-20,2.1428308)"/></g></g><g id="layer3" transform="translate(72.895212,-687.28296)"><rect id="rect4062" width="597.887" height="32.668" x="-19.405" y="833.279" ry="9.8" style="fill:#007fff;fill-opacity:.42465754"/><text id="text4064" x=".565" y="858.523" xml:space="preserve" style="font-size:78.40000153px;font-style:normal;font-variant:normal;font-weight:400;font-stretch:normal;line-height:125%;letter-spacing:0;word-spacing:0;fill:#000;fill-opacity:1;stroke:none;font-family:Serif;-inkscape-font-specification:Serif"><tspan style="font-size:23.51999855px;font-style:italic;-inkscape-font-specification:Serif Italic" id="tspan4066" x=".565" y="858.523">j</tspan></text><rect id="rect4062-6" width="266.087" height="32.668" x="-995.478" y="138.375" ry="9.8" transform="matrix(0,-1,1,0,0,0)" style="fill:#ff7f00;fill-opacity:.42465754"/><text id="text4064-5" x="151.289" y="761.585" xml:space="preserve" style="font-size:78.40000153px;font-style:normal;font-variant:normal;font-weight:400;font-stretch:normal;line-height:125%;letter-spacing:0;word-spacing:0;fill:#000;fill-opacity:1;stroke:none;font-family:Serif;-inkscape-font-specification:Serif"><tspan style="font-size:23.51999855px;font-style:italic;-inkscape-font-specification:Serif Italic" id="tspan4066-3" x="151.289" y="761.585">i</tspan></text><text id="text3795-5" x="-920.117" y="-30.407" transform="matrix(0,-1,1,0,0,0)" xml:space="preserve" style="font-size:78.40000153px;font-style:normal;font-variant:normal;font-weight:400;font-stretch:normal;line-height:125%;letter-spacing:0;word-spacing:0;fill:#007fff;fill-opacity:1;stroke:none;font-family:Serif;-inkscape-font-specification:Serif"><tspan style="font-size:23.51999855px;font-style:normal;font-variant:normal;font-weight:400;font-stretch:normal;fill:#007fff;fill-opacity:1;font-family:Sans;-inkscape-font-specification:Sans" id="tspan3797-8" x="-920.117" y="-30.407">observation</tspan></text><text id="text3795-5-5" x="111.399" y="723.153" xml:space="preserve" style="font-size:78.40000153px;font-style:normal;font-variant:normal;font-weight:400;font-stretch:normal;line-height:125%;letter-spacing:0;word-spacing:0;fill:#ff7f00;fill-opacity:1;stroke:none;font-family:Serif;-inkscape-font-specification:Serif"><tspan style="font-size:23.51999855px;font-style:normal;font-variant:normal;font-weight:400;font-stretch:normal;fill:#ff7f00;fill-opacity:1;font-family:Sans;-inkscape-font-specification:Sans" id="tspan3797-8-5" x="111.399" y="723.153">feature</tspan></text><text id="text3795-5-5-4" x="526.273" y="723.153" xml:space="preserve" style="font-size:78.40000153px;font-style:normal;font-variant:normal;font-weight:400;font-stretch:normal;line-height:125%;letter-spacing:0;word-spacing:0;fill:#000;fill-opacity:1;stroke:none;font-family:Serif;-inkscape-font-specification:Serif"><tspan style="font-size:23.51999855px;font-style:normal;font-variant:normal;font-weight:400;font-stretch:normal;fill:#000;fill-opacity:1;font-family:Sans;-inkscape-font-specification:Sans" id="tspan3797-8-5-1" x="526.273" y="723.153">label</tspan></text></g></svg>